<?xml version="1.0" encoding="UTF-8" standalone="no"?> <!-- Created with Vectornator for iOS (http://vectornator.io/) --><!DOCTYPE svg PUBLIC "-//W3C//DTD SVG 1.1//EN" "http://www.w3.org/Graphics/SVG/1.1/DTD/svg11.dtd">
<svg height="100%" style="fill-rule:evenodd;clip-rule:evenodd;stroke-linecap:round;stroke-linejoin:round;" xmlns:xlink="http://www.w3.org/1999/xlink" xmlns="http://www.w3.org/2000/svg" xml:space="preserve" width="100%" xmlns:vectornator="http://vectornator.io" version="1.1" viewBox="0 0 512 512">
<metadata>
<vectornator:setting key="Units" value="Points"/>
<vectornator:setting key="GuidesVisible" value="1"/>
<vectornator:setting key="RulersVisible" value="1"/>
<vectornator:setting key="SnapToGuides" value="1"/>
<vectornator:setting key="DynamicGuides" value="1"/>
</metadata>
<defs/>
<g id="Untitled" vectornator:layerName="Untitled">
<path d="M498.841+83.87L428.13+13.159C410.584-4.386+382.036-4.387+364.49+13.159C346.944+30.705+346.945+59.253+364.49+76.799L368.026+80.335L332.671+115.69L314.993+98.012C297.447+80.467+268.899+80.466+251.353+98.012C237.526+111.84+234.604+132.497+242.571+149.22L88.719+303.073C74.892+316.9+71.97+337.558+79.937+354.281L60.435+373.783C46.789+387.429+46.789+409.634+60.435+423.28L63.971+426.816L4.393+486.394C-1.465+492.252-1.465+501.749+4.393+507.607C10.251+513.465+19.748+513.465+25.606+507.607L85.183+448.03L88.718+451.566C102.364+465.212+124.569+465.212+138.215+451.566L157.717+432.064C174.441+440.031+195.098+437.109+208.926+423.282L362.778+269.43C379.502+277.397+400.159+274.475+413.986+260.648C431.532+243.102+431.532+214.554+413.986+197.008L396.308+179.33L431.663+143.975L435.199+147.511C452.745+165.057+481.293+165.057+498.839+147.511C516.386+129.964+516.386+101.416+498.841+83.87ZM117.003+430.352C115.054+432.301+111.881+432.301+109.932+430.352L81.648+402.068C79.699+400.119+79.699+396.946+81.648+394.997L99.326+377.319L134.681+412.674L117.003+430.352ZM187.714+402.068C181.865+407.917+172.35+407.917+166.501+402.068L109.932+345.5C104.083+339.651+104.083+330.136+109.932+324.287L123.087+311.132L140.765+328.809C146.623+334.667+156.12+334.667+161.978+328.809C167.836+322.951+167.836+313.454+161.978+307.596L144.3+289.918L165.513+268.705L183.191+286.383C189.049+292.241+198.546+292.241+204.404+286.383C210.262+280.525+210.262+271.028+204.404+265.17L186.726+247.492L207.939+226.279L285.721+304.061L187.714+402.068ZM306.934+282.847L229.152+205.065L261.959+172.258L339.741+250.04L306.934+282.847ZM392.775+239.433C386.926+245.282+377.411+245.282+371.562+239.433L272.567+140.438C266.719+134.589+266.718+125.073+272.567+119.225C278.416+113.376+287.932+113.376+293.78+119.225L392.775+218.22C398.624+224.069+398.624+233.585+392.775+239.433ZM375.097+158.116L353.884+136.903L389.239+101.548L410.452+122.761L375.097+158.116ZM477.627+126.296C471.778+132.145+462.263+132.145+456.414+126.296L385.703+55.585C379.854+49.736+379.854+40.221+385.703+34.372C391.552+28.523+401.068+28.524+406.916+34.372L477.627+105.083C483.476+110.932+483.476+120.448+477.627+126.296Z" opacity="1" fill="#395370"/>
</g>
</svg>
